<svg xmlns="http://www.w3.org/2000/svg" width="32" height="32" viewBox="0 0 512 512">
  <!-- Blue gradient background -->
  <defs>
    <linearGradient id="bg" x1="0%" y1="0%" x2="0%" y2="100%">
      <stop offset="0%" style="stop-color:#2196F3;stop-opacity:1" />
      <stop offset="100%" style="stop-color:#64B5F6;stop-opacity:1" />
    </linearGradient>
  </defs>
  
  <!-- Background -->
  <rect width="512" height="512" fill="url(#bg)" rx="64"/>
  
  <!-- Sun -->
  <g transform="translate(256,200)">
    <!-- Sun rays -->
    <g fill="#FFD600">
      <polygon points="0,-80 -15,-65 15,-65"/>
      <polygon points="56.57,-56.57 42.43,-42.43 56.57,-28.28"/>
      <polygon points="80,0 65,-15 65,15"/>
      <polygon points="56.57,56.57 42.43,42.43 56.57,28.28"/>
      <polygon points="0,80 -15,65 15,65"/>
      <polygon points="-56.57,56.57 -42.43,42.43 -56.57,28.28"/>
      <polygon points="-80,0 -65,-15 -65,15"/>
      <polygon points="-56.57,-56.57 -42.43,-42.43 -56.57,-28.28"/>
    </g>
    <!-- Sun circle -->
    <circle cx="0" cy="0" r="45" fill="#FFEB3B"/>
    <circle cx="0" cy="0" r="35" fill="#FFD600"/>
  </g>
  
  <!-- Cloud -->
  <g transform="translate(256,320)">
    <!-- Main cloud body -->
    <ellipse cx="0" cy="0" rx="120" ry="60" fill="white"/>
    <ellipse cx="-60" cy="-10" rx="50" ry="40" fill="white"/>
    <ellipse cx="60" cy="-10" rx="50" ry="40" fill="white"/>
    <ellipse cx="-30" cy="-30" rx="35" ry="30" fill="white"/>
    <ellipse cx="30" cy="-30" rx="35" ry="30" fill="white"/>
    
    <!-- Cloud outline for depth -->
    <ellipse cx="0" cy="0" rx="120" ry="60" fill="none" stroke="#E3F2FD" stroke-width="3"/>
  </g>
</svg>
